<svg xmlns="http://www.w3.org/2000/svg" width="68.646" height="42.537" viewBox="0 0 68.646 42.537"><path d="M-338.206-29.213a2.137,2.137,0,0,1-.88-.453c-2.53-2.48.72-5.33,4.478-6.983v-4.715a9.722,9.722,0,0,0,1.386.666l2.878-2.85L-331.3-46c8.423-2.9,11.806-4.025,18.655-5.17l-1.228-1.147,2-1.144c4.6,1.52,8.956,1.92,8.208,5.783.187-2.612-3.064-3.625-8.02-5l-.96.586,1.838,1.52a107.868,107.868,0,0,0-19.24,5.1l.825,2.133-3,2.958A13,13,0,0,0-321.008-42.3s.108-.08.108-.107a5.724,5.724,0,0,0-.986-.96,2.637,2.637,0,0,1,2.45,2.985h-.745a2.68,2.68,0,0,0-.213-1.333,14.313,14.313,0,0,1-13.326,2.08v3.65c-2.025.72-5.65,2.957-5.623,5.118a2.025,2.025,0,0,0,1.146,1.68" transform="translate(354.359 55.029)" fill="#b1b1b1"/><path d="M-321.07-30.147c-4.534,2.292-8.876,4.13-15.565,4.4-8.714-.187-10.073-5.97-5.943-12.02,3.9-6.1,10.074-11.62,19.9-15.058a36.393,36.393,0,0,1,11.086-2.2c5.8-.054,11.46,1.76,11.087,7.33-.214,4.264-6.37,10.287-9.62,14.6-1.386,1.9-1.626,3.118.745,3.012,8.6-.56,16.418-3.545,23.667-6.637-4.9,3.332-30.25,15.883-30.354,7.33a6.71,6.71,0,0,1,1.358-3.465,36.321,36.321,0,0,1,3.066-3.812c1.732-1.972,6.02-6.7,7.46-9.515,2.425-5.356-3-5.623-7.7-7.275l-2,1.144,1.228,1.147c-6.85,1.145-10.233,2.265-18.655,5.17l.96,2.453-2.878,2.85a7.263,7.263,0,0,1-1.386-.666v4.717c-3.76,1.652-7,4.5-4.478,6.983a2.13,2.13,0,0,0,.88.453c4.6,2.612,17.162-.933,17.137-.933m-24.6,13.378-1.643-3.74-1.74,3.74Zm-5.237,4.1h-3.448l5.32-10.276h3.817l5.077,10.276h-3.83l-.773-1.852h-5.334Zm11.27-10.276h3.3V-12.66h-3.3Zm5.317,3.112h3.3v7.153h-3.3Zm0-3.1h3.3v2.1h-3.3Zm11.8,6.7a2.307,2.307,0,0,0-.446-1.5,1.469,1.469,0,0,0-1.2-.547,1.538,1.538,0,0,0-1.257.527,2.347,2.347,0,0,0-.436,1.53,2.235,2.235,0,0,0,.44,1.474,1.505,1.505,0,0,0,1.225.525,1.516,1.516,0,0,0,1.228-.543,2.221,2.221,0,0,0,.456-1.47m-6.63-6.725h3.308v4.14a3.95,3.95,0,0,1,1.322-.912,4.14,4.14,0,0,1,1.6-.3,3.574,3.574,0,0,1,2.717,1.08,3.988,3.988,0,0,1,1.026,2.865,3.454,3.454,0,0,1-1.012,2.6,3.711,3.711,0,0,1-2.7.98,4.055,4.055,0,0,1-1.677-.337,3.51,3.51,0,0,1-1.286-.993l-.028.648a2.165,2.165,0,0,1-.1.508h-3.308a3.194,3.194,0,0,0,.087-.5,6.734,6.734,0,0,0,.032-.693v-9.08m17.23,7.173a8,8,0,0,0-2.188.2.744.744,0,0,0-.583.73.638.638,0,0,0,.283.552,1.38,1.38,0,0,0,.8.2,1.794,1.794,0,0,0,1.265-.392,1.549,1.549,0,0,0,.423-1.185v-.112Zm.07,2.043a2.816,2.816,0,0,1-1.226.92,4.9,4.9,0,0,1-1.824.3,4.237,4.237,0,0,1-2.347-.543,1.74,1.74,0,0,1-.822-1.54,2.033,2.033,0,0,1,1.416-1.96,13.879,13.879,0,0,1,4.746-.63c0-.014,0-.04.007-.08a.691.691,0,0,0,.006-.087.97.97,0,0,0-.33-.82,1.561,1.561,0,0,0-.993-.27,1.769,1.769,0,0,0-.92.2.81.81,0,0,0-.381.594h-3.054a1.944,1.944,0,0,1,1.13-1.772A7.538,7.538,0,0,1-313.08-20a6.136,6.136,0,0,1,3.247.68,2.283,2.283,0,0,1,1.066,2.065V-13.6a3.93,3.93,0,0,0,.031.548,1.541,1.541,0,0,0,.108.388h-3.065a2.881,2.881,0,0,1-.134-.516,3.393,3.393,0,0,1-.042-.54Zm11.584-2.494a2.307,2.307,0,0,0-.446-1.5,1.476,1.476,0,0,0-1.212-.547,1.535,1.535,0,0,0-1.255.527,2.353,2.353,0,0,0-.436,1.53,2.24,2.24,0,0,0,.438,1.474,1.5,1.5,0,0,0,1.226.525,1.517,1.517,0,0,0,1.228-.543,2.215,2.215,0,0,0,.456-1.47m-6.63-6.725h3.3v4.14a4.093,4.093,0,0,1,1.32-.912,4.14,4.14,0,0,1,1.6-.3,3.577,3.577,0,0,1,2.717,1.08,3.984,3.984,0,0,1,1.026,2.865,3.455,3.455,0,0,1-1.013,2.6,3.711,3.711,0,0,1-2.7.98,4.047,4.047,0,0,1-1.676-.337,3.51,3.51,0,0,1-1.287-.993l-.028.648a2.689,2.689,0,0,1-.09.508h-3.3a3.236,3.236,0,0,0,.087-.5c.02-.2.03-.433.03-.693v-9.08m17.235,7.173a8.172,8.172,0,0,0-2.2.2.731.731,0,0,0-.583.73.638.638,0,0,0,.283.552,1.38,1.38,0,0,0,.8.2,1.8,1.8,0,0,0,1.267-.392,1.54,1.54,0,0,0,.42-1.185Zm.07,2.043a2.813,2.813,0,0,1-1.225.92,4.9,4.9,0,0,1-1.825.3,4.24,4.24,0,0,1-2.347-.543,1.74,1.74,0,0,1-.82-1.54,2.033,2.033,0,0,1,1.415-1.96,13.886,13.886,0,0,1,4.747-.63c0-.014,0-.04.007-.08l.006-.087a.97.97,0,0,0-.33-.82,1.564,1.564,0,0,0-.992-.27,1.761,1.761,0,0,0-.92.2.814.814,0,0,0-.383.594h-3.052a1.946,1.946,0,0,1,1.127-1.772,7.532,7.532,0,0,1,3.38-.582,6.138,6.138,0,0,1,3.247.68,2.281,2.281,0,0,1,1.066,2.065V-13.6a4,4,0,0,0,.03.548,1.6,1.6,0,0,0,.108.388h-3.066a2.841,2.841,0,0,1-.134-.516,3.543,3.543,0,0,1-.042-.54Z" transform="translate(354.359 55.029)" fill="#b1b1b1"/></svg>