<svg xmlns="http://www.w3.org/2000/svg" width="68.588" height="43.022" viewBox="0 0 68.588 43.022"><g transform="translate(-137.5 -22.39)"><path d="M137.5,29.632v20h10.472c4.122,0,7.931-1.447,7.931-5.7,0-2.873-2.07-4.184-4.346-4.871a4.3,4.3,0,0,0,2.96-4.175c0-3.136-3.111-5.26-7.3-5.26H137.5Zm6.415,4.658h2.359a1.644,1.644,0,0,1,1.692,1.515,1.668,1.668,0,0,1-1.692,1.468h-2.359V34.29Zm0,7.135h3.113a1.929,1.929,0,0,1,2,1.769,1.965,1.965,0,0,1-2.188,1.834h-2.925Z" transform="translate(0 -6.667)" fill="#b1b1b1"/><path d="M202.961,309.475v20h10.472c4.122,0,7.931-1.447,7.931-5.7,0-2.873-2.069-4.184-4.346-4.871a4.3,4.3,0,0,0,2.96-4.175c0-3.136-3.111-5.26-7.3-5.26h-9.717Zm6.415,4.658h2.359a1.645,1.645,0,0,1,1.692,1.515,1.668,1.668,0,0,1-1.692,1.468h-2.359Zm0,7.135h3.113a1.929,1.929,0,0,1,2,1.769,1.965,1.965,0,0,1-2.188,1.834h-2.925Z" transform="translate(-60.272 -264.328)" fill="#b1b1b1"/><path d="M376.015,49.6v-20h16.133v4.83h-9.736v2.623h7.906v4.529h-7.906V44.79h9.736V49.6Z" transform="translate(-219.609 -6.639)" fill="#b1b1b1"/><path d="M591.886,43.535c4.541,0,8.173-2.59,8.173-6.788,0-6.774-8.813-5.732-8.813-7.841,0-.815.857-1.247,1.736-1.247a4.247,4.247,0,0,1,2.609,1l3.791-3.61a10.178,10.178,0,0,0-7.138-2.657c-4.845,0-8.016,2.876-8.016,6.345,0,6.861,8.686,5.865,8.686,8.017,0,.755-.726,1.514-2.043,1.514a5.778,5.778,0,0,1-3.6-1.668l-3.814,3.636a11.294,11.294,0,0,0,8.429,3.3Z" transform="translate(-410.607 0)" fill="#b1b1b1"/><path d="M793.818,49.6V34.413h-5.283V29.6h16.982v4.812h-5.283V49.6Z" transform="translate(-599.429 -6.639)" fill="#b1b1b1"/><path d="M437.905,309.3h6.4v11.982a2.532,2.532,0,0,0,2.473,2.338,2.443,2.443,0,0,0,2.395-2.4V309.3h6.378v11.836a8.826,8.826,0,0,1-17.642-.256Z" transform="translate(-276.593 -264.163)" fill="#b1b1b1"/><path d="M672.645,329.3V322.15L665.126,309.3H671.6l4.254,6.887,4.269-6.887h6.487l-7.548,12.927V329.3Z" transform="translate(-485.803 -264.164)" fill="#b1b1b1"/></g></svg>