<svg xmlns="http://www.w3.org/2000/svg" width="78.3" height="27.906" viewBox="0 0 78.3 27.906"><path d="M12.987,57.442a9.565,9.565,0,0,1-5.734-1.917,11.417,11.417,0,0,1-1.191-1.192A7.445,7.445,0,0,1,4.77,52.009c-.845-2.53-.41-5.849,1.243-9.492,1.415-3.119,3.6-6.212,7.41-10.5.561-.63,2.233-2.474,2.243-2.474s-.087.158-.2.35a22.462,22.462,0,0,0-2.3,5.306,9.52,9.52,0,0,0,.262,6.853,6.693,6.693,0,0,0,2.928,2.919c2.129,1.043,5.246,1.129,9.052.253.262-.061,13.248-3.508,28.858-7.661s28.383-7.548,28.385-7.545S46.384,45.546,27.556,53.6c-2.982,1.275-3.779,1.6-5.181,2.089a26.269,26.269,0,0,1-9.388,1.756" transform="translate(-4.35 -29.547)" fill-rule="evenodd"/></svg>