<svg xmlns="http://www.w3.org/2000/svg" width="78.3" height="52.2" viewBox="0 0 78.3 52.2"><path d="M43.293,60.185a3.788,3.788,0,1,1,3.788,3.764,3.764,3.764,0,0,1-3.788-3.764Zm15.411,0a3.788,3.788,0,1,1,3.788,3.764A3.764,3.764,0,0,1,58.7,60.185Zm-35.725,0a3.788,3.788,0,1,1,3.788,3.764,3.764,3.764,0,0,1-3.788-3.764Zm-15.411,0a3.788,3.788,0,1,1,3.788,3.764,3.764,3.764,0,0,1-3.788-3.764Zm27.864,6.522h3.295V53.534H35.431Zm-20.314,0h3.3V53.534h-3.3v1.057a6.805,6.805,0,1,0,0,11.188Zm51.136,0h3.295V53.534H66.253v1.057a6.805,6.805,0,1,0,0,11.188Zm4.514-4.279c.1,2.655,2.387,4.537,6.2,4.537,3.113,0,5.682-1.34,5.682-4.3,0-2.062-1.168-3.274-3.866-3.789l-2.1-.413c-1.349-.258-2.283-.516-2.283-1.315,0-.876.908-1.263,2.049-1.263,1.661,0,2.335.825,2.387,1.8h3.321c-.182-2.578-2.257-4.3-5.6-4.3-3.451,0-5.5,1.882-5.5,4.33,0,2.991,2.439,3.48,4.54,3.867l1.738.31c1.245.232,1.79.593,1.79,1.315,0,.644-.622,1.289-2.1,1.289-2.153,0-2.854-1.108-2.88-2.062ZM30.528,49.049v5.542a6.805,6.805,0,1,0,0,11.188v.928h3.295V49.049Zm20.314,0v5.542a6.805,6.805,0,1,0,0,11.188v.928h3.295V49.049ZM12.912,45.156l2.231,3.892H30.528l-6.1-10.466Zm25.815,7.166V49.049H50.842l-12.92-22.22L26.377,33.4l9.055,15.647v3.274Zm17.02-3.274H71.157L51.231,14.79l-11.519,6.6Z" transform="translate(-4.35 -14.79)" fill-rule="evenodd"/></svg>