<svg xmlns="http://www.w3.org/2000/svg" width="100" height="100" viewBox="0 0 100 100"><rect width="100" height="100" fill="none"/><g transform="translate(0.27 30.067)"><path d="M97.507,2.241c-.693,1.624.653,4.2-1.286,4.7l-60.211-.2-6.389.133-.9,1.382L21.181,36.846l-1.044.474L9.966,37.142l-.955-1.984C6.18,23.5,2.994,12.04.27.4A25.651,25.651,0,0,1,8.558.416c2.758,8.515,4.012,17.577,6.415,26.393l.315.256.744-.84L22.517.795l.726-.608L91.626.3c1.959.611,6.05-1.4,5.881,1.944" transform="translate(-0.27 -0.067)"/><path d="M97.6,13.222c.17,1.913-1.651,3.668-2.979,4.785-2.479-1.1-5.538-3.37-8.585-1.729-.953.715-1.622,2-.926,3.055,4.219,3.156,11.748,1.436,13.335,7.839.784,2.755.156,6.279-2.027,8.231-3.517,3.281-8.617,3.975-13.533,2.56-2.157-.962-4.568-1.609-6.436-3.337a15.5,15.5,0,0,1,3.337-5.1c2.742.679,5.13,2.9,8.518,2.505a3.7,3.7,0,0,0,3.082-1.989c.4-4.77-5.692-2.927-8.494-4.284a7.771,7.771,0,0,1-5.664-5.841A7.517,7.517,0,0,1,79.642,12.5c5.1-3.485,13.111-2.935,17.958.72" transform="translate(-0.27 -0.067)"/><path d="M74.326,11.837c.2,8.19.169,16.695-.064,24.84-2.639.68-5.61.091-8.406.086C63.6,33,62.217,29.4,59.628,25.613c-.328-.14-.475.3-.7.383L58.71,36.513c-1.763.965-4.254.089-6.3.476L51.962,35.6c.083-7.712-.22-16.134.4-23.69a31.081,31.081,0,0,1,7.424-.391l.742.51,5.743,10.324.8-.153c-.2-3.043.465-6.9.3-10.276,1.974-.842,4.85-.382,6.957-.089" transform="translate(-0.27 -0.067)"/><path d="M39.28,25.252A16.889,16.889,0,0,0,37.42,19.5c-1.152,1.583-1.11,3.825-1.608,5.686.941.864,2.429.438,3.469.065Zm6.09-7.214,4.6,18.639c-1.967.723-4.5.178-6.738.212-1.1-1.547-.409-4.508-2.953-4.835-2.365.144-5.43-.781-7.034,1.094l-1.1,3.82a18.978,18.978,0,0,1-6.7-.223c2.158-8.437,4.645-16.732,7.236-25.026a37.235,37.235,0,0,1,10.627,0Z" transform="translate(-0.27 -0.067)"/><path d="M98.65,8.917a.544.544,0,0,0-.221-.036H98.34V9.3h.144a.361.361,0,0,0,.206-.047.212.212,0,0,0,.075-.176.153.153,0,0,0-.115-.158Zm-.675,1.132V8.643c.09,0,.218,0,.394,0s.272,0,.288,0a.613.613,0,0,1,.281.076.345.345,0,0,1,.187.332.3.3,0,0,1-.1.254.415.415,0,0,1-.242.093.5.5,0,0,1,.2.084.4.4,0,0,1,.129.321v.123a.159.159,0,0,1,0,.044c0,.011.006.028.006.039l.01.046-.348-.007a.914.914,0,0,1-.022-.195.462.462,0,0,0-.025-.17.181.181,0,0,0-.1-.106.592.592,0,0,0-.131-.021h-.08l-.08,0v.5ZM97.8,8.614a1,1,0,0,0-.3.734,1.027,1.027,0,0,0,.31.747.984.984,0,0,0,.735.3,1.006,1.006,0,0,0,.746-.307,1.038,1.038,0,0,0,.3-.741,1.041,1.041,0,0,0-1.79-.734Zm1.633,1.644a1.238,1.238,0,0,1-.892.358,1.257,1.257,0,0,1-.907-.368,1.273,1.273,0,0,1-.365-.906,1.2,1.2,0,0,1,.4-.923,1.245,1.245,0,0,1,.875-.351,1.209,1.209,0,0,1,.895.372,1.232,1.232,0,0,1,.375.9,1.207,1.207,0,0,1-.38.915Z" transform="translate(-0.27 -0.067)"/></g></svg>