<svg xmlns="http://www.w3.org/2000/svg" width="78.3" height="39.014" viewBox="0 0 78.3 39.014"><path d="M69.051,58.352a2.328,2.328,0,1,1-2.284,2.326A2.313,2.313,0,0,1,69.051,58.352ZM23.44,44.009V59.762a.88.88,0,1,0,1.761,0h0l0-15.753h5.187V61.374a1.538,1.538,0,0,1-1.533,1.546H19.784a1.544,1.544,0,0,1-1.536-1.546h0V44.009Zm26.12,0a1.692,1.692,0,0,1,1.688,1.7h0V62.92h-5.2V47.129a.877.877,0,0,0-.881-.867.867.867,0,0,0-.879.853h0v15.8H39.116v-15.8a.882.882,0,0,0-1.763.014h0V62.92h-5.2V45.705a1.691,1.691,0,0,1,1.687-1.7H49.56Zm-34.743,0a1.675,1.675,0,0,1,1.669,1.7V56.464a1.7,1.7,0,0,1-1.7,1.7H9.539V62.92H4.35V44.009Zm48.643,0a1.691,1.691,0,0,1,1.689,1.7V62.92H59.961V58.172H58.2V62.92H53.011V45.705a1.691,1.691,0,0,1,1.687-1.7ZM69.09,58.691h-.033a1.949,1.949,0,1,0,.033,0Zm-.3.654c.723,0,1.107.273,1.107.8a.779.779,0,0,1-.543.75l-.037.014.863,1.122h-.619l-.8-1.06v1.06h-.506V59.345Zm.078.457h-.1v.729h.087c.361,0,.55-.128.55-.384C69.4,59.919,69.216,59.8,68.866,59.8Zm-9.789-13.53a.877.877,0,0,0-.879.864V55.83h1.763V47.123A.871.871,0,0,0,59.077,46.272Zm-48.656-.01H9.539v9.565h.882a.878.878,0,0,0,.879-.888V47.162A.889.889,0,0,0,10.421,46.262Zm69.541-21.7c.532-.315,1.738-1.021,2.435-.132A2.061,2.061,0,0,1,81.91,26.9,9.267,9.267,0,0,1,79.6,28.227a10.233,10.233,0,0,0-1.411.947c-1.363,1.039-2.352,3.4-3.452,5.985A6.366,6.366,0,0,1,72.2,37.8c-.347.225-.033.419.346.905.486.644,1.462,3.267,1.336,7.259a2.7,2.7,0,0,0,.589,1.6c.56,1,1.664.777,1.637,2.091-.038,1.762,1.265,2.138.847,2.953a3.451,3.451,0,0,0-.2,1.746c0,.293.159.719-.447.688-2.478-.15-2.312-3.474-2.266-4.617a.742.742,0,0,0-.094-.435c-.123-.09-1.666-1.289-1.768-1.392a16.4,16.4,0,0,1-3.8-5.38,8.161,8.161,0,0,0-1.731-3.074,4.641,4.641,0,0,0-2.975-1.291c-6.892-.036-8.31-3.059-10.185-4.566a.888.888,0,0,0-.327-.146c-.1.007-.187.132-.255.19a3.042,3.042,0,0,1-2.433,1.006c-2.329,0-4.833-2.041-5.275-1.586-.337.355-.044,1.085-.664,1.207A1.54,1.54,0,0,1,42.785,33.5c.134-1.341,1.507-1.734,2.71-1.871a6.082,6.082,0,0,1,2,.188c.555.078.653-.595.562-1.028-.1-.471-.542-.569-1-.706-.558-.166-1.177.3-1.593.155-.488-.175-.527-.424-.93-.784-.516-.448-1.112-.569-1.109-1.2,0-.585.712-.633.914-1.17.1-.268.074-.548.165-.712.24-.438.692-.416,1.054-.771.495-.491.741-1.435,1-1.474s.686.906.941.821c.271-.092.649-.889,1.018-.842.158.021.784,1.276.784,1.276,5.05.25,11.284,6.369,12.087,6.988l.044.036A17.906,17.906,0,0,0,66.39,35.67,7.623,7.623,0,0,0,70,36.356c1.527-.11,3.235-1.451,4.285-3.277C75.6,30.794,76.161,26.814,79.962,24.558Z" transform="translate(-4.35 -23.993)" fill-rule="evenodd"/></svg>