<svg xmlns="http://www.w3.org/2000/svg" width="99.748" height="54.699" viewBox="0 0 99.748 54.699"><path d="M0,54.358H2.236V49.919a4.341,4.341,0,0,1,.407-2.333,1.91,1.91,0,0,1,1.528-.813c1.886,0,1.886,2.22,1.886,2.992v4.6H8.293V49.325a5.219,5.219,0,0,0-.862-3.309,3.8,3.8,0,0,0-2.8-1.3,3.512,3.512,0,0,0-2.561,1.13v-.813H0v9.325" fill="#1d1d1b"/><path d="M11.138,48.894a2.707,2.707,0,0,1,2.683-2.187,2.5,2.5,0,0,1,2.52,2.187h-5.2m7.317,1.8a5.355,5.355,0,0,0,.138-1.106,4.878,4.878,0,0,0-4.829-4.878A4.976,4.976,0,0,0,8.886,49.78a4.856,4.856,0,0,0,9.439,1.634h-2.39a2.293,2.293,0,0,1-2.114,1.2A2.667,2.667,0,0,1,11.252,50.7Z" fill="#1d1d1b" fill-rule="evenodd"/><path d="M21.455,54.358h1.382L24.6,48.309h.032l1.748,6.049h1.382l3.406-9.333H28.789l-1.715,5.707h-.032l-1.52-5.707H23.74l-1.528,5.707h-.032l-1.7-5.707H18.1l3.358,9.333" fill="#1d1d1b"/><path d="M37.6,49.593a2.789,2.789,0,0,1,2.772-2.8,2.748,2.748,0,0,1,2.715,2.886,2.716,2.716,0,0,1-2.683,2.935,2.837,2.837,0,0,1-2.8-3.016m-2.1,4.789h2.049V53.236A3.765,3.765,0,0,0,40.7,54.667c3.407,0,4.634-3.146,4.634-5.016a4.821,4.821,0,0,0-4.683-4.935,4.147,4.147,0,0,0-2.911,1.163V41.919H35.5Z" fill="#1d1d1b" fill-rule="evenodd"/><path d="M53.659,49.675a2.74,2.74,0,0,1-2.723,2.935,2.789,2.789,0,0,1-2.781-2.87,2.837,2.837,0,0,1,2.781-2.976,2.732,2.732,0,0,1,2.723,2.911m2.114-4.65H53.724v1.187h0a3.992,3.992,0,0,0-3.13-1.5,4.724,4.724,0,0,0-4.675,4.927c0,3.114,2.138,5.033,4.545,5.033a4.642,4.642,0,0,0,3.252-1.463v1.154h2.057Z" fill="#1d1d1b" fill-rule="evenodd"/><rect width="2.236" height="12.439" transform="translate(56.967 41.919)" fill="#1d1d1b"/><path d="M67.6,49.675a2.74,2.74,0,0,1-2.724,2.935,2.789,2.789,0,0,1-2.772-2.87,2.829,2.829,0,0,1,2.772-2.976A2.724,2.724,0,0,1,67.6,49.675m2.122-4.65H67.675v1.187h0a3.943,3.943,0,0,0-3.13-1.5,4.716,4.716,0,0,0-4.675,4.927c0,3.114,2.138,5.033,4.545,5.033a4.643,4.643,0,0,0,3.252-1.463v1.154h2.049Z" fill="#1d1d1b" fill-rule="evenodd"/><path d="M70.911,54.358h2.26V49.919a4.342,4.342,0,0,1,.407-2.333,1.927,1.927,0,0,1,1.528-.813c1.886,0,1.886,2.22,1.886,2.992v4.6h2.236V49.325a5.219,5.219,0,0,0-.862-3.309,3.8,3.8,0,0,0-2.829-1.3,3.48,3.48,0,0,0-2.553,1.13v-.813H70.911v9.325" fill="#1d1d1b"/><path d="M87.146,51.317a2.382,2.382,0,0,1-2.065,1.293,2.8,2.8,0,0,1-2.813-2.919,2.724,2.724,0,0,1,2.707-2.927,2.317,2.317,0,0,1,2.171,1.358h2.528a4.878,4.878,0,0,0-4.7-3.415,4.984,4.984,0,0,0,0,9.959,4.878,4.878,0,0,0,4.675-3.35H87.122" fill="#1d1d1b"/><path d="M92.3,48.894a2.707,2.707,0,0,1,2.642-2.187,2.5,2.5,0,0,1,2.52,2.187H92.3m7.317,1.8a5.406,5.406,0,0,0,.13-1.13,4.878,4.878,0,0,0-4.821-4.878,4.976,4.976,0,0,0-4.878,5.065,4.851,4.851,0,0,0,9.431,1.691H97.13a2.293,2.293,0,0,1-2.154,1.187,2.658,2.658,0,0,1-2.569-1.911Z" fill="#1d1d1b" fill-rule="evenodd"/><path d="M51.642,12.683l3.472-6.024L66.854,5.9l.415-.732L56.4,4.415,58.943,0H79.089c6.2,0,10.781,2.22,9,8.732-.537,1.976-3.057,6.943-10.439,9.024a5.56,5.56,0,0,1,4.8,6.4c-1.2,7.951-11.488,11.74-17.22,11.74l-23.764.016-1.171-4.6,12.455-.878.423-.732-13.512-.813-1.447-5.463L57.439,22.3l.423-.724L23.285,19.4l1.626-2.878L62.1,14.081l.423-.724-10.878-.675M67.2,13.87h3.439c2.285,0,4.675-1.057,5.545-3.187.813-1.967-.277-3.642-1.707-3.634H71.146Zm-3.943,6.862L59.114,27.9h3.943c1.821,0,5.1-.91,6.106-3.512.927-2.439-.813-3.658-1.984-3.658ZM33.244,31.8l-2.382,4.065H13.789l1.626-2.87ZM34.455,0H48.2l1.033,3.9L32.8,2.878ZM50.016,6.984l1.5,5.691L28.041,11.138,29.667,8.26ZM38.057,23.431l-2.992,5.154-16.536-.943,1.626-2.878Z" fill="#1d1d1b" fill-rule="evenodd"/></svg>