<svg xmlns="http://www.w3.org/2000/svg" width="103.642" height="41.53" viewBox="0 0 103.642 41.53"><g transform="translate(0)"><path d="M73.993,33.224c-4.7.154-7.636,1-7.636,4.112,0,2.019,1.61,4.189,5.67,4.189,5.44,0,8.352-2.963,8.352-7.84v-.536l-6.385.077Zm11.6,6.436L85.767,44H80.94a28.385,28.385,0,0,1-.178-3.27c-2.6,3.218-5.722,4.137-10.038,4.137-6.385,0-9.807-3.371-9.807-7.279,0-5.67,4.648-7.662,12.758-7.84,2.208-.05,4.686-.05,6.729-.05v-.562c0-3.78-2.428-5.326-6.639-5.326-3.116,0-5.44,1.3-5.67,3.525H62.63c.587-5.567,6.436-6.973,11.568-6.973,6.193,0,11.365,2.2,11.365,8.71v10.6Z" transform="translate(-8.38 -11.206)" fill="#b1b1b1"/><path d="M39.188,30.473c-.2-4.853-3.716-6.666-7.456-6.666-4.035,0-7.279,2.044-7.84,6.666Zm-15.4,3.448c.281,4.725,3.525,7.508,7.994,7.508,3.09,0,5.849-1.239,6.768-4.009h5.363c-1.047,5.567-6.973,7.456-12.055,7.456C22.587,44.877,18.5,39.769,18.5,32.9c0-7.585,4.24-12.566,13.46-12.566,7.33,0,12.693,3.831,12.693,12.209v1.38Z" transform="translate(-18.501 -11.213)" fill="#b1b1b1"/><path d="M52.963,43.084c4.827,0,8.121-3.473,8.121-8.71s-3.295-8.71-8.121-8.71c-4.8,0-8.121,3.473-8.121,8.71S48.161,43.084,52.963,43.084ZM39.654,12.97h5.184V26.021c2.554-3.04,6.053-3.908,9.5-3.908,5.8,0,12.209,3.908,12.209,12.336,0,7.06-5.108,12.209-12.312,12.209a12.071,12.071,0,0,1-9.5-4.035,25.535,25.535,0,0,1-.178,3.167H39.45l.178-5.363V12.97Z" transform="translate(-13.502 -12.97)" fill="#b1b1b1"/><path d="M107.831,21.034,91.765,52.576H85.944l4.622-8.761L78.486,21.034h6.079l8.888,17.8,8.862-17.8Z" transform="translate(-4.188 -11.046)" fill="#b1b1b1"/></g></svg>