<svg xmlns="http://www.w3.org/2000/svg" width="147.179" height="44.987" viewBox="0 0 147.179 44.987"><g transform="translate(0)"><path d="M177.258,385.2l-3.761,6.452a14.724,14.724,0,0,1,5.275,11.191,15.3,15.3,0,0,1-15.3,15.3,15.525,15.525,0,0,1-15.564-15.3,13.739,13.739,0,0,1,.336-3.2l-7.14,4.174c0,11.39,9.525,21.419,22.367,21.419a22.394,22.394,0,0,0,13.79-40.041Z" transform="translate(-141.1 -380.254)" fill="#b1b1b1"/><path d="M248.4,360.5l3.792-6.513s-3.272-1.88-9.525-.81l-4.77,8.332C237.884,361.523,241.89,358.878,248.4,360.5Z" transform="translate(-223.1 -352.846)" fill="#b1b1b1"/><g transform="translate(54.714 15.967)"><path d="M610.331,534.4a9.007,9.007,0,1,0,8.631,9A8.821,8.821,0,0,0,610.331,534.4Zm0,13.683a4.731,4.731,0,1,1,4.289-4.71A4.512,4.512,0,0,1,610.331,548.083Z" transform="translate(-576.807 -534.398)" fill="#b1b1b1"/><path d="M707.731,534.4a9.007,9.007,0,1,0,8.631,9A8.821,8.821,0,0,0,707.731,534.4Zm0,13.683a4.731,4.731,0,1,1,4.289-4.71A4.513,4.513,0,0,1,707.731,548.083Z" transform="translate(-648.578 -534.398)" fill="#b1b1b1"/><path d="M808.194,534.4a7.741,7.741,0,0,0-5.1,1.763l-.421-1.342H799.3V552h4.315v-9.631c0-3.658,3.921-3.684,3.921-3.684,2.973,0,3.1,3.184,3.1,3.184v10.157h4.236v-11C814.378,534.106,808.194,534.4,808.194,534.4Z" transform="translate(-722.413 -534.393)" fill="#b1b1b1"/><path d="M515.994,534.4a7.74,7.74,0,0,0-5.1,1.763l-.421-1.342H507.1V552h4.315v-9.631c0-3.658,3.921-3.684,3.921-3.684,2.973,0,3.105,3.184,3.105,3.184v10.157h4.236v-11C522.151,534.106,515.994,534.4,515.994,534.4Z" transform="translate(-507.1 -534.393)" fill="#b1b1b1"/></g></g></svg>