<svg xmlns="http://www.w3.org/2000/svg" width="99.994" height="30.147" viewBox="0 0 99.994 30.147"><g transform="translate(0)"><path d="M72.038,40.7c-5.8,4.283-14.234,6.57-21.486,6.57A38.876,38.876,0,0,1,24.3,37.257c-.544-.492-.057-1.162.6-.78a52.812,52.812,0,0,0,26.26,6.965,52.222,52.222,0,0,0,20.032-4.1c.984-.418,1.806.644.844,1.358m2.418-2.764c-.74-.95-4.9-.448-6.782-.226-.57.07-.657-.427-.144-.784,3.32-2.338,8.77-1.663,9.407-.88s-.165,6.25-3.286,8.858c-.48.4-.936.187-.723-.344.7-1.75,2.272-5.672,1.528-6.625" transform="translate(-10 -17.126)" fill="#b1b1b1" fill-rule="evenodd"/><path d="M67.8,20.427V18.155a.56.56,0,0,1,.575-.575H78.55a.567.567,0,0,1,.588.575V20.1a3.218,3.218,0,0,1-.766,1.428L73.1,29.054A11.228,11.228,0,0,1,78.9,30.3a1.057,1.057,0,0,1,.54.884v2.425c0,.33-.366.718-.75.518a11.721,11.721,0,0,0-10.747.017c-.353.192-.723-.192-.723-.522v-2.3a2.75,2.75,0,0,1,.374-1.563L73.705,21H68.4a.563.563,0,0,1-.588-.57M30.694,34.6H27.6a.586.586,0,0,1-.553-.527V18.194a.581.581,0,0,1,.6-.57h2.886a.584.584,0,0,1,.562.53V20.23h.057a4.085,4.085,0,0,1,4.074-2.943c1.937,0,3.147.936,4.018,2.943A4.57,4.57,0,0,1,47.1,19.024c.98,1.336.78,3.278.78,4.98L47.87,34.03a.585.585,0,0,1-.6.575h-3.1a.6.6,0,0,1-.557-.575V25.6a20.009,20.009,0,0,0-.087-2.977,1.612,1.612,0,0,0-1.82-1.367,2.054,2.054,0,0,0-1.85,1.3,9.614,9.614,0,0,0-.287,3.043v8.42a.585.585,0,0,1-.6.575h-3.1a.586.586,0,0,1-.557-.575l0-8.42c0-1.772.292-4.38-1.907-4.38-2.224,0-2.137,2.542-2.137,4.38v8.42a.585.585,0,0,1-.6.575M87.9,17.3c4.592,0,7.078,3.944,7.078,8.958,0,4.845-2.747,8.688-7.078,8.688-4.5,0-6.965-3.944-6.965-8.858,0-4.945,2.486-8.8,6.965-8.8m.026,3.243c-2.28,0-2.425,3.108-2.425,5.045s-.03,6.085,2.4,6.085c2.4,0,2.512-3.343,2.512-5.38a14.753,14.753,0,0,0-.46-4.214,1.936,1.936,0,0,0-2.024-1.537M100.93,34.6H97.848a.6.6,0,0,1-.557-.575l0-15.888a.585.585,0,0,1,.6-.518h2.87a.593.593,0,0,1,.553.444V20.5h.057c.866-2.172,2.08-3.208,4.218-3.208a4.048,4.048,0,0,1,3.613,1.872c.8,1.27.8,3.408.8,4.945v10a.593.593,0,0,1-.6.5h-3.1a.585.585,0,0,1-.548-.5V25.48c0-1.737.2-4.28-1.937-4.28a2.051,2.051,0,0,0-1.8,1.27,7.033,7.033,0,0,0-.492,3.008v8.554a.6.6,0,0,1-.605.575m-41.225-7.6a6.067,6.067,0,0,1-.58,3.282,2.516,2.516,0,0,1-2.142,1.406c-1.188,0-1.885-.905-1.885-2.242,0-2.638,2.364-3.117,4.6-3.117v.67m3.12,7.544a.644.644,0,0,1-.73.074,7.568,7.568,0,0,1-1.776-2.063,6.13,6.13,0,0,1-5.1,2.25c-2.607,0-4.632-1.606-4.632-4.823a5.252,5.252,0,0,1,3.3-5.058,21.456,21.456,0,0,1,5.82-1.075v-.4a3.935,3.935,0,0,0-.38-2.242,2.06,2.06,0,0,0-1.737-.805,2.354,2.354,0,0,0-2.486,1.86.646.646,0,0,1-.54.566l-3-.322a.544.544,0,0,1-.46-.65c.688-3.64,3.98-4.736,6.92-4.736a7.018,7.018,0,0,1,4.662,1.54c1.506,1.406,1.362,3.282,1.362,5.324v4.823a4.234,4.234,0,0,0,1.167,2.87.585.585,0,0,1-.013.823L62.82,34.57l0-.01m-43.7-7.543a6.067,6.067,0,0,1-.58,3.282A2.509,2.509,0,0,1,16.4,31.7c-1.188,0-1.88-.905-1.88-2.242,0-2.638,2.364-3.117,4.6-3.117v.67m3.12,7.544a.644.644,0,0,1-.73.074,7.822,7.822,0,0,1-1.776-2.063,6.126,6.126,0,0,1-5.1,2.25c-2.6,0-4.63-1.6-4.63-4.821a5.257,5.257,0,0,1,3.3-5.058,21.456,21.456,0,0,1,5.82-1.075v-.4a3.982,3.982,0,0,0-.374-2.242,2.071,2.071,0,0,0-1.737-.805,2.377,2.377,0,0,0-2.5,1.86.646.646,0,0,1-.535.566l-3-.322a.548.548,0,0,1-.46-.65c.692-3.64,3.98-4.736,6.92-4.736a7.018,7.018,0,0,1,4.662,1.54C23.6,20.084,23.454,21.96,23.454,24v4.823a4.234,4.234,0,0,0,1.167,2.87.581.581,0,0,1-.01.823l-2.36,2.052-.01-.01" transform="translate(-10 -17.126)" fill="#b1b1b1" fill-rule="evenodd"/></g></svg>