<svg xmlns="http://www.w3.org/2000/svg" width="18.001" height="15.753" viewBox="0 0 18.001 15.753"><path d="M17.672,10.454a1.125,1.125,0,0,1,0,1.593L11.716,18l5.956,5.954a1.126,1.126,0,0,1-1.593,1.593L9.329,18.8a1.125,1.125,0,0,1,0-1.593l6.75-6.75a1.125,1.125,0,0,1,1.593,0Z" transform="translate(-8.998 -10.123)" fill="#fff" fill-rule="evenodd"/><path d="M10.125,18a1.125,1.125,0,0,1,1.125-1.125H25.875a1.125,1.125,0,0,1,0,2.25H11.25A1.125,1.125,0,0,1,10.125,18Z" transform="translate(-8.998 -10.123)" fill="#fff" fill-rule="evenodd"/></svg>