<svg xmlns="http://www.w3.org/2000/svg" width="94.938" height="63.793" viewBox="0 0 94.938 63.793"><path d="M17.783,67.6a5.688,5.688,0,1,1-5.8,5.7A5.737,5.737,0,0,1,17.783,67.6Zm63.073-.094a10.581,10.581,0,0,1,2.884,1.58l-1.831,1.987c-.426-.265-.826-.531-1.251-.773a2.3,2.3,0,0,0-2.049-.209,1.3,1.3,0,0,0-.688.681.726.726,0,0,0,.531.846,6.486,6.486,0,0,0,1.582.437,4.734,4.734,0,0,1,2.852,1.238,3.107,3.107,0,0,1-.686,5.019,5.577,5.577,0,0,1-3.126.571,9.487,9.487,0,0,1-3.715-1.007c-.127-.065-.249-.136-.37-.212-.764-.485-.782-.564-.15-1.194.446-.442.924-.854,1.357-1.254.545.333,1.125.741,1.753,1.061a3.221,3.221,0,0,0,2.4.166c.387-.113.8-.242.842-.708s-.379-.69-.743-.807c-.732-.232-1.488-.4-2.236-.58a4.773,4.773,0,0,1-3.147-2.165,2.972,2.972,0,0,1,.849-3.635A4.857,4.857,0,0,1,80.856,67.507Zm-73.764.126a9.169,9.169,0,0,1,3.86,2.457L8.164,71.714c-1.322-1.391-2.97-1.582-4.179-.5a2.831,2.831,0,0,0-.326,3.855c1.134,1.394,2.553,1.321,4.621-.253l2.411,1.744a6.355,6.355,0,0,1-3.223,2,5.917,5.917,0,0,1-6.2-1.672,5.626,5.626,0,0,1,.313-7.453A5.373,5.373,0,0,1,7.092,67.632Zm62.29.334a3.071,3.071,0,0,1,2.779,1.746,2.813,2.813,0,0,1-.235,3.13c-.32.455-.708.853-1.127,1.35l2.045,4.281c-1.061,0-2.057.011-3.046-.016-.117,0-.264-.2-.338-.338-.587-1.1-1.178-2.2-1.732-3.313a.683.683,0,0,0-.791-.474,6.9,6.9,0,0,1-.865,0v4.1H63.586V67.967h.531C65.872,67.967,67.627,67.951,69.382,67.967Zm-22.17-.212c.851.025,1.7.009,2.629.009-.177.488-.31.915-.458,1.339-1.044,2.958-2.093,5.912-3.126,8.874a.557.557,0,0,1-.628.458c-1.224-.027-2.434-.011-3.7-.011-1.253-3.538-2.5-7.064-3.765-10.659,1,0,1.946-.012,2.88.018.108,0,.255.241.306.395.824,2.464,1.635,4.936,2.45,7.4.053.163.119.32.218.587.423-1.284.814-2.466,1.2-3.65.478-1.452.962-2.9,1.426-4.359a.486.486,0,0,1,.566-.405ZM28.4,67.779c.129,0,.28.177.375.3q2.022,2.749,4.032,5.507c.057.076.117.149.276.341V67.8h2.8V78.415c-.869,0-1.748.012-2.623-.012-.118,0-.251-.166-.345-.281q-1.988-2.477-3.968-4.953c-.1-.122-.2-.241-.377-.458v5.682H25.785V67.765C26.669,67.765,27.534,67.753,28.4,67.779Zm31.989.014V70.3H54.665v1.654H59.8v2.21h-5.13v1.769l5.728.007V78.4H51.882V67.793Zm34.538-.007v2.507H89.2v1.682h5.164V74.16H89.215v1.785h5.723V78.39h-8.5v-10.6ZM15.75,71.213a2.88,2.88,0,1,0,3.151-.6A2.88,2.88,0,0,0,15.75,71.213Zm52.008-.7H66.031v1.521c.982,0,1.946.021,2.9-.011a.727.727,0,0,0,.646-.8.69.69,0,0,0-.729-.708C68.485,70.5,68.121,70.516,67.758,70.516ZM37.278,15.2q7.784,0,15.568.011a.961.961,0,0,1,.63.29q7.681,8.439,15.341,16.9c1.72,1.9,3.439,3.8,5.189,5.725l-2.066,2.3q-7.795,8.626-15.591,17.249c-.934,1.033-1.863,2.072-2.809,3.091a.863.863,0,0,1-.55.272q-7.95.022-15.9.011c-.06,0-.12-.011-.292-.028L56.3,38.09c-6.473-7.618-12.914-15.214-19.41-22.849C37.05,15.223,37.163,15.2,37.278,15.2Zm-2.02,10.211.161.03c0,.862-.011,1.725,0,2.587.032,2.1.083,4.207.1,6.31a.521.521,0,0,0,.433.6q4.1,1.327,8.184,2.666c.195.064.386.136.672.237l-3.176,1.184c-1.877.7-3.752,1.4-5.636,2.08a.508.508,0,0,0-.389.58c.018,2.846.018,5.695.023,8.541v.653h0c-.451-.58-.815-1.044-1.176-1.511-1.484-1.928-2.974-3.853-4.446-5.792a.546.546,0,0,0-.731-.239c-2.685.915-5.382,1.8-8.076,2.693a5.292,5.292,0,0,1-.559.159l5.194-8.023-5.348-8.046,9.219,2.831Z" transform="translate(0 -15.2)" fill-rule="evenodd"/></svg>