<svg xmlns="http://www.w3.org/2000/svg" width="69.6" height="65.25" viewBox="0 0 69.6 65.25"><path d="M46.509,15.322a3.7,3.7,0,0,1-.055-.438,3.728,3.728,0,1,1,3.98,3.476,3.325,3.325,0,0,1-.384.007.4.4,0,0,0-.2.1c-.211.331.538.269.028,1.716a1.143,1.143,0,0,1-.06.318c-.04.556-.253,2.2-.283,3.078.108.127.138.189.127.5a20.988,20.988,0,0,1-.3,2.091,1.107,1.107,0,0,1-.541.8,13.916,13.916,0,0,1-.989,3.533,4.533,4.533,0,0,1-.358,1.882,7.932,7.932,0,0,1-.973,4.3,6.235,6.235,0,0,0,.275,3.183c.295,1.245,1.112,1.765,1.233,3.04a19.133,19.133,0,0,1-.426,7.4l.559,1.332c.694.32,2.417,1.195,1.462,2.579a24.151,24.151,0,0,1,5.054,2.906,18.456,18.456,0,0,1,2.026,1.9,3.461,3.461,0,0,1,1.989.845,72.827,72.827,0,0,1,9.37,7.171c.425.249.6.428.94.609.053.1.068.127.057.155-.118.3-.113.308-.22.547a6.342,6.342,0,0,0,.529.415c.138.043.138-.023.376-.082a1.807,1.807,0,0,0,.83.512c.42-.107.348-.02.7-.419.128-.132.341,0,.341,0a3.312,3.312,0,0,1,.8-.7,2.35,2.35,0,0,1,.886-.2c.195,0,.158.2.141.268a6.554,6.554,0,0,0-.947.433,7.846,7.846,0,0,0-1.015,1.391c1.147-.157,1.851.128,2.806.018a2.228,2.228,0,0,0,1.453-.395,6.276,6.276,0,0,1,1-.576,1.244,1.244,0,0,1,1.3.2c.284.323.456.324.023.78-.156.177-.383.375-.671.661a22.716,22.716,0,0,1-1.893,1.726,11.528,11.528,0,0,1-2.031,1.295,13.036,13.036,0,0,0-1.979,1.594c-.127.114-.463.318-.626.426-.4.261-.519.043-.777-.435a6.4,6.4,0,0,1-.313-.56c-.213-.417-.373-.893-.308-.885a4.208,4.208,0,0,1-1.311-1.562A4.31,4.31,0,0,1,66.9,71.094l-.855-.689c-.979.2-1.2-.407-3.789-2.25a2.673,2.673,0,0,1-1.4-.652c-1.167-.939-3.965-3.063-4.439-3.306a8.9,8.9,0,0,1-1.492-.816c-.559-.1-.865-.162-1.145-.241a7.007,7.007,0,0,0-1.27-.278,11.362,11.362,0,0,1-3.564-1.223c-.551-.263-1.03-.4-1.5-.6a19.182,19.182,0,0,0-2.683-1.022,8.778,8.778,0,0,1-2.224-.808,2.93,2.93,0,0,0-.521-.271,1.141,1.141,0,0,0-.739.112c-.862.452-1.67.841-2.416,1.245-.694.373-1.333.761-2.011,1.153-.611.355-1.317.689-2.042,1.037,0,0-2.069,1.042-3.2,1.447A37.35,37.35,0,0,1,27.4,66.817c-.606.289-1.783,1.039-2.326,1.206-.31.251-1.413,1.042-2.277,1.694-.667.5-1.172.925-1.172.925-.388.349-.361.515-1.1.2-.2.169-.363.274-.494.371-.532.388-.578.295-.772.284-.371.323-.418.156-.742.527-.213.331,0,.252-.445.413-.095.037-.14.152-.213.216-.361.3-.363,1.144-1.229,1.2-.5.359-.373.793-.756.774.024.373-.677.917-.8.915-1.1.383-1.18-.433-2.505.176a2.784,2.784,0,0,1-.754.36,2.275,2.275,0,0,1-1.716-.339,6.88,6.88,0,0,1-1.3-1.534c-.215-.51-.09-.833.581-1.315a1.235,1.235,0,0,1,.8-.345c.233-.089.17.047.586-.1.241-.087.241-.025.727-.067a2.133,2.133,0,0,1,.478-.171c.385-.127.759-.269.759-.269s.1-.1.468-.064c.313-.129.634-.32.8-.378-.042-.5.012-.475.241-.676.286-.248.338-.207.551-.054.09-.052.133-.07.123-.146-.035-.259-.256-.382-.19-.953a1.6,1.6,0,0,1-.211-.683c.047-.184.092-.273.2-.331s.157.022.22.094a1.767,1.767,0,0,1,.2.524c.04.442.176,1.014.611.691.256-.261.306-.957.829-.808l.373.326a2.369,2.369,0,0,1,.521-.42s-.3-.3-.036-.535a5.591,5.591,0,0,0,.774-.7,21.381,21.381,0,0,1,2.717-2.613,25.643,25.643,0,0,1,6.462-3.828,2.822,2.822,0,0,1,2.232-1.245,17.034,17.034,0,0,1,4.712-4.853c.5-.915.721-.818,1.378-1,.521-.42.639-.42.872-.858.226-.9-.523-3.322,1.39-3.444A9.158,9.158,0,0,1,38.729,49a8.313,8.313,0,0,1-.516-1.942c-.015-.064-.759-.59-.548-1.278a10.319,10.319,0,0,1-1.092-1.674,1.6,1.6,0,0,1-.248-.043c-.1-.015-.217-.01-.351-.022a1.38,1.38,0,0,1-1.152,1A8.1,8.1,0,0,1,30.869,49.6a6.769,6.769,0,0,0-1.4,2.506,1.9,1.9,0,0,0-.022,1.243c-.14.438-.1.482-.1.482a.687.687,0,0,0,.4.431c.321.085.643.072.624.432-.043.45-.631.376-.909.326-1.07-.171-.732-.872-1.417-.638-.524.345-.721,1.362-1.576,1.23-.113-.075-.078-.3,0-.458.12-.251.333-.458.206-.552-.556.176-1.671.547-1.671.547-.524.144-1.1-.119-.583-.465a4.936,4.936,0,0,0,1.005-.483s.218-.3-.2-.149a4.06,4.06,0,0,1-1.611.212,8.066,8.066,0,0,1-1.129-.211c-.13-.079-.248-.39.065-.388a10.239,10.239,0,0,0,2.157-.32c.371-.145,1.077-.565,1.473-.763a3.441,3.441,0,0,1,.666-.753c.394-.457.727-.726,1.077-1.193a21.578,21.578,0,0,1,1.824-3.563,16.5,16.5,0,0,1,1.989-2.564,4.276,4.276,0,0,1,1.275-2.282,17.388,17.388,0,0,1,.942-1.815c.137-.233.266-.435.4-.656.33-.52.676-1.489,1.961-1.641a4.718,4.718,0,0,0,.761-.7c.33-.283.255-.722.523-1.032-.41-.4-1.456-1.156-1.558-2.2a3.285,3.285,0,0,1,.956-2.7,3.1,3.1,0,0,1,2.475-1.062,2.4,2.4,0,0,1,1.789.963c.363.371.5.132.651.567,1,.266.94.149.932.885a1.224,1.224,0,0,1,.406.83,3.6,3.6,0,0,1,1.3-1.594c.211-.624.355-1.238.541-1.862.174-.577.391-1.171.559-1.618-.178-1.261.188-1.47.676-2.576-.086-.152-.068-.2-.031-.445.19-.731.486-1.7.662-2.329a.359.359,0,0,1,.316-.269c.223-.8.558-2.284.614-2.586a1.971,1.971,0,0,0-.095-1.573,2.86,2.86,0,0,0-.128-.544c-.278-.487-.577-1.119-.78-1.571a11.056,11.056,0,0,1-.34-1.372c-.177-.554-.022,0-.022,0" transform="translate(-8.7 -10.875)" fill-rule="evenodd"/></svg>