<svg xmlns="http://www.w3.org/2000/svg" width="24.205" height="24.205" viewBox="0 0 24.205 24.205"><g transform="translate(-1.5 -1.5)"><path d="M20.8,11.9a4.4,4.4,0,1,1-4.4-4.4A4.4,4.4,0,0,1,20.8,11.9Zm-2.2,0a2.2,2.2,0,1,1-2.2-2.2A2.2,2.2,0,0,1,18.6,11.9Z" transform="translate(-2.799 -1.599)" fill="#191919" fill-rule="evenodd"/><path d="M13.6,1.5A12.1,12.1,0,1,0,25.7,13.6,12.1,12.1,0,0,0,13.6,1.5ZM3.7,13.6a9.862,9.862,0,0,0,2.1,6.1,9.9,9.9,0,0,1,15.677-.092A9.9,9.9,0,1,0,3.7,13.6Zm9.9,9.9a9.861,9.861,0,0,1-6.24-2.214,7.7,7.7,0,0,1,12.572-.075A9.862,9.862,0,0,1,13.6,23.5Z" fill="#191919" fill-rule="evenodd"/></g></svg>