<svg xmlns="http://www.w3.org/2000/svg" width="113.677" height="32.054" viewBox="0 0 113.677 32.054"><path d="M-126.646,633.74c.746,0,1.393-.4,1.443-.886l.746-8.406c0-.846-.984-1.492-2.189-1.492-1.243,0-2.189.7-2.189,1.492l.746,8.406c.049.5.7.886,1.443.886m-4.577,2.638a1.317,1.317,0,0,0-.049-1.691l-6.914-4.825c-.7-.4-1.791.1-2.388,1.144s-.5,2.238.2,2.636l7.661,3.583a1.41,1.41,0,0,0,1.492-.846m9.1,0c.4.647,1.043.984,1.492.787l7.661-3.583a1.908,1.908,0,0,0,.2-2.636c-.6-1.043-1.691-1.542-2.388-1.144l-6.914,4.825a1.4,1.4,0,0,0-.049,1.742m-4.528,7.857c.746,0,1.393.4,1.443.886l.746,8.406c0,.846-.984,1.492-2.189,1.492-1.243,0-2.189-.7-2.189-1.492l.746-8.406c.049-.5.7-.886,1.443-.886m4.528-2.628c.4-.647,1.043-.984,1.492-.787l7.661,3.532a1.908,1.908,0,0,1,.2,2.636c-.6,1.043-1.691,1.542-2.388,1.144l-6.914-4.825a1.315,1.315,0,0,1-.049-1.691m-9.1,0a1.317,1.317,0,0,1-.049,1.691l-6.914,4.825c-.7.4-1.791-.1-2.388-1.144s-.5-2.238.2-2.636l7.661-3.532a1.312,1.312,0,0,1,1.492.787" transform="translate(226.031 -622.956)" fill="#b1b1b1"/><g transform="translate(0 8.095)"><path d="M-163.162,642.508a1.512,1.512,0,0,1-.084.625,2.245,2.245,0,0,1-2.124,1.5,1.448,1.448,0,0,1-1.583-1.541c0-1.624,1.791-2.041,3.789-2.041Zm3.165-2.791c0-2.658-1.125-5-4.957-5a8.9,8.9,0,0,0-4.374,1.041l.625,2.124a6.319,6.319,0,0,1,3.209-.915c1.969,0,2.249,1.083,2.249,1.791v.167c-4.249,0-6.914,1.457-6.914,4.457a3.535,3.535,0,0,0,3.74,3.54,4.337,4.337,0,0,0,3.415-1.5h.084s.5,2.041,3.165,1.25a19.184,19.184,0,0,1-.167-2.833l-.084-4.134m-66.025-8.612,3.209,13.164c.5,2.165,1.457,2.958,4.134,2.416l1.708-7.039,1-4.749h.041c.209,1.791.5,3.051.833,4.79l1.083,4.874c.374,1.666,1.375,2.749,4,2.165l4.134-15.579h-3.333l-1.417,6.748-1,5.29h-.041l-.915-5.165-1.457-6.873h-3.47l-1.583,6.707-1.125,5.415h-.041q-.452-2.841-1-5.665l-1.25-6.457-3.5-.041m26.453,11.414a1.511,1.511,0,0,1-.084.625,2.245,2.245,0,0,1-2.124,1.5,1.448,1.448,0,0,1-1.583-1.541c0-1.624,1.791-2.041,3.789-2.041Zm3.165-2.791c0-2.658-1.125-5-4.957-5a8.9,8.9,0,0,0-4.374,1.041l.625,2.124a6.319,6.319,0,0,1,3.209-.915c1.969,0,2.249,1.083,2.249,1.791v.167c-4.249,0-6.914,1.457-6.914,4.457a3.535,3.535,0,0,0,3.74,3.54,4.337,4.337,0,0,0,3.415-1.5h.084s.5,2.041,3.165,1.25a19.186,19.186,0,0,1-.167-2.833v-4.134m5.163,3.677V631.094h-3.165v15.579h3.165v-3.29" transform="translate(226.031 -631.051)" fill="#b1b1b1"/><path d="M-149.707,631.094v11.5a4.889,4.889,0,0,0,.915,3.374,3.487,3.487,0,0,0,2.583.958,7.4,7.4,0,0,0,2.291-.335l-.041-2.458a4.88,4.88,0,0,1-1.208.125c-1.083,0-1.457-.709-1.457-2.124v-4.415h2.749v-3h-2.749v-3.665h-3.083m-8.207,3.917v11.7h3.248v-6a2.933,2.933,0,0,1,.084-.886A2.466,2.466,0,0,1-152,637.748a6.222,6.222,0,0,1,.958.084v-3.083a3.693,3.693,0,0,0-.709-.084,3.5,3.5,0,0,0-3.209,2.458h-.084v-2.208h-2.874m-30.989.053v11.7h3.165V639.8a2.419,2.419,0,0,1,.167-.958,2.121,2.121,0,0,1,1.916-1.5c1.291,0,1.874,1.083,1.874,2.658v6.664h3.165v-6.957a3.764,3.764,0,0,1,.125-.958,1.988,1.988,0,0,1,1.916-1.417c1.291,0,1.916,1.083,1.916,2.915v6.415h3.165v-6.914c0-3.624-1.833-5.082-3.915-5.082a4.36,4.36,0,0,0-2.291.625,5.533,5.533,0,0,0-1.5,1.457h-.041a3.318,3.318,0,0,0-3.209-2.083,3.644,3.644,0,0,0-3.415,1.874h-.041v-1.583h-3" transform="translate(226.031 -631.051)" fill="#b1b1b1"/></g></svg>